<svg width="66" height="61" viewBox="0 0 66 61" fill="none" xmlns="http://www.w3.org/2000/svg">
<path d="M34.4262 1.4659L37.4079 18.5963C38.0548 22.2893 41.1679 25.1835 45.1401 25.7849L63.5661 28.5569C65.6685 28.8764 65.6685 31.6861 63.5661 32.0056L45.1401 34.7776C41.1679 35.379 38.0548 38.2732 37.4079 41.9662L34.4262 59.0966C34.0825 61.0511 31.0604 61.0511 30.7167 59.0966L27.735 41.9662C27.0881 38.2732 23.975 35.379 20.0028 34.7776L1.57677 32.0056C-0.52559 31.6861 -0.52559 28.8764 1.57677 28.5569L20.0028 25.7849C23.975 25.1835 27.0881 22.2893 27.735 18.5963L30.7167 1.4659C31.0604 -0.488635 34.0825 -0.488635 34.4262 1.4659Z" fill="#557EF8"/>
</svg>
