<?xml version="1.0" encoding="UTF-8"?>
<svg version="1.1" viewBox="0 0 1284 1296" width="1280" height="1280" xmlns="http://www.w3.org/2000/svg">
<path transform="translate(0)" d="m0 0h1281v1296h-1281zm58 66v1164l7 1h811l345-1 1-41v-1122l-1-1z" fill="#040506"/>
<path transform="translate(931,308)" d="m0 0 63 1 12 3 16 8 8 6 9 9 8 14 4 13 1 6 1 35v214l-1 1h-69l-1-134h-66l-1 134-2 1h-68l-1-4v-239l2-15 5-14 8-13 12-12 12-7 14-5 6-1zm13 36-10 3-9 6-6 7-3 8-1 7v71h67v-74l-4-11-7-9-8-5-11-3z" fill="#040506"/>
<path transform="translate(374,309)" d="m0 0h145l13 3 16 8 13 11 9 13 6 13 2 8 1 18-1 175-3 14-5 12-9 13-10 9-16 8-12 3-8 1-24 1h-78l-39-1-1-5v-302zm70 36-1 225 1 12h37l10-3 8-5 5-6 4-10 1-10v-169l-2-13-4-8-4-5-10-6-7-2z" fill="#040506"/>
<path transform="translate(486,687)" d="m0 0h48l26 2 13 4 11 6 11 9 8 11 6 12 3 12 1 20v156l-1 17-4 16-6 12-9 11-11 8-11 5-11 3-18 2-21 1h-15l-26-1-19-2-11-3-12-6-10-9-7-8-8-16-3-11-1-182 2-17 4-12 7-12 9-10 10-8 11-5 11-3zm22 35-10 3-9 6-7 9-3 8-1 6v167l2 14 5 10 8 8 10 4 11 1 9-2 9-5 8-9 4-13v-175l-2-10-5-10-9-7-9-4z" fill="#050607"/>
<path transform="translate(626,309)" d="m0 0h172l1 5-1 28-1 1-100 1v102l66 1v34l-1 1-65 1-1 101h100l2 1 1 31-1 2h-172l-1-8v-298z" fill="#050607"/>
<path transform="translate(663,687)" d="m0 0h168l1 1v32l-1 1-98 1v101l65 1v33l-1 1-55 1h-10l-1 134h-68l-1-8v-297z" fill="#060708"/>
<path transform="translate(849,687)" d="m0 0h202l1 1v32l-66 1-1 272-2 1h-66l-1-1-1-270-66-1-1-1v-33z" fill="#040506"/>
<path transform="translate(228,687)" d="m0 0h66l1 1v271h101l1 4v29l-1 1-165 1-4-1v-305z" fill="#040506"/>
<path transform="translate(226,309)" d="m0 0h67l1 2v306l-2 1h-66z" fill="#040506"/>
</svg>
